
<svg version="1.1"  x="0px" y="0px" viewBox="0 0 1920 1080"  xml:space="preserve">
<g>
	<path class="st0" d="M1350.61,476.47c0-41.1-31.91-73.77-73.27-73.77c-42.87,0-74.52,33.7-74.52,76.08 c0,42.11,32.42,75.04,74.79,75.04c30.13,0,59.23-20.41,68.41-49.27h-35.73c-6.89,12.52-18.9,18.12-32.68,18.12	c-14.03,0-26.8-7.14-34.46-18.88c-2.04-3.08-3.82-6.39-4.58-10.21h110.01C1349.84,487.98,1350.61,482.1,1350.61,476.47	 M1237.53,466.27c4.85-20.18,19.4-32.43,40.07-32.43c20.68,0,34.97,12.01,38.29,32.43H1237.53z"/>
	<path class="st0" d="M1214.55,402.7c-16.85,0-23.75,3.58-33.18,17.36h-0.51v-12.51h-31.15v70.46v71.24h33.94V469.6	c0-20.68,8.68-33.19,30.89-33.96V402.7z"/>
	<path class="st0" d="M1074.66,402.7c-41.87,0-75.56,34.22-75.56,75.8c0,41.36,34.2,75.32,75.56,75.32	c42.89,0,75.06-32.93,75.06-75.81C1149.72,436.41,1116.53,402.7,1074.66,402.7 M1074.66,522.68c-24.51,0-41.6-20.41-41.6-44.17	c0-22.96,17.61-44.66,41.6-44.66s41.11,22.21,41.11,44.93C1115.76,502.01,1098.65,522.68,1074.66,522.68"/>
	<path class="st0" d="M932.45,522.68c-25.26,0-42.63-19.91-42.63-44.41c0-24.24,15.83-44.42,41.11-44.42	c15.82,0,25.52,7.4,32.94,20.68h38.27c-10.45-31.39-38.04-51.83-71.21-51.83c-41.35,0-75.05,33.7-75.05,75.05 c0,41.62,33.44,76.07,75.31,76.07c33.44,0,59.73-19.64,70.95-50.79h-38.27C956.7,514.5,946.24,522.68,932.45,522.68"/>
	<path class="st0" d="M842.87,422.36c-9.97-12-27.07-19.66-42.64-19.66c-16.32,0-27.56,6.14-38.8,17.11v-12.26h-63.47	c27.75,10.51,46.85,37.16,46.85,68.92c0,5.62-0.77,11.51-2.05,17.12H632.73c0.77,3.82,2.56,7.12,4.59,10.21	c7.66,11.73,20.42,18.88,34.47,18.88c13.78,0,25.78-5.61,32.67-18.12h35.74c-6.62,20.78-23.56,37.12-43.77,44.69h67.54v-67.41	c0-10.47,0-26.55,6.14-35.48c5.09-7.41,14.28-12.51,23.22-12.51c25.28,0,28.6,25.78,28.6,45.43v69.97h33.94v-71.5v-7.13	C855.87,454.02,853.84,435.63,842.87,422.36"/>
	<path class="st0" d="M671.8,433.85c-20.68,0-35.23,12.25-40.08,32.42h78.36C706.77,445.86,692.46,433.85,671.8,433.85"/>
</g>
<g>
	<path class="st0" d="M693.91,640.37h3.32c0.69,4.21,3.4,6.37,8.1,6.37c5.44,0,9.18-4.01,9.49-10.42h-13.39v-2.74h13.39	c-0.46-6.14-3.74-9.8-9.26-9.8c-4.52,0-7.45,2.28-8.14,6.75h-3.13c0.96-6.37,5.17-9.49,11.35-9.49c7.99,0,12.7,5.48,12.7,13.97	v0.31c0,8.18-5.48,14.09-12.97,14.09C699.62,649.4,694.49,646.35,693.91,640.37z"/>
	<path class="st0" d="M723.93,621.46h3.36v12.5h14.51v-12.5h3.36v27.59h-3.36v-12.27h-14.51v12.27h-3.36V621.46z"/>
	<path class="st0" d="M752.1,621.46h16.09v2.74h-12.73v9.38h10.26v2.74h-10.26v9.99h13.43v2.74H752.1V621.46z"/>
	<path class="st0" d="M773.94,621.46h7.83c5.29,0,9.65,2.32,9.65,8.07v0.15c0,5.87-4.4,8.14-9.65,8.14h-4.48v11.23h-3.36V621.46z	 M782,635.16c3.94,0,6.06-1.93,6.06-5.48v-0.15c0-3.9-2.32-5.36-6.06-5.36h-4.71v11H782z"/>
	<path class="st0" d="M796.36,621.46h15.74v2.86h-12.39v24.74h-3.36V621.46z"/>
	<path class="st0" d="M817.04,649.05v-27.59h3.36v22.96l14.9-22.96h3.36v27.59h-3.36v-22.96l-14.9,22.96H817.04z"/>
	<path class="st0" d="M846.67,649.05h-3.78l9.03-12.23c-3.78-0.7-6.6-2.86-6.6-7.53v-0.15c0-5.75,4.36-7.68,9.65-7.68h7.83v27.59	h-3.36v-12h-4.05L846.67,649.05z M854.74,624.16c-3.74,0-6.06,1.08-6.06,4.98v0.15c0,3.55,2.12,5.09,6.06,5.09h4.71v-10.23H854.74z	"/>
	<path class="st0" d="M879.98,621.46h3.36v12.5h14.51v-12.5h3.36v27.59h-3.36v-12.27h-14.51v12.27h-3.36V621.46z"/>
	<path class="st0" d="M906.79,635.43v-0.31c0-7.83,5.48-14.01,13.58-14.01c8.1,0,13.47,6.17,13.47,13.93v0.31	c0,7.79-5.36,14.05-13.39,14.05C912.31,649.4,906.79,643.15,906.79,635.43z M930.37,635.31V635c0-6.17-3.63-11.19-9.99-11.19	c-6.41,0-10.11,4.71-10.11,11.27v0.31c0,6.68,4.44,11.23,10.19,11.23C926.59,646.62,930.37,641.99,930.37,635.31z"/>
	<path class="st0" d="M939.44,621.46h8.3c5.13,0,8.88,1.7,8.88,7.14v0.15c0,2.51-1,4.75-4.17,5.83c4.01,0.96,5.52,3.01,5.52,6.6	v0.15c0,5.21-3.55,7.72-9.07,7.72h-9.45V621.46z M947.73,633.5c4.05,0,5.6-1.47,5.6-4.86v-0.15c0-3.13-1.81-4.4-5.67-4.4h-4.94	v9.42H947.73z M948.81,646.43c4.01,0,5.87-1.78,5.87-5.13v-0.15c0-3.4-1.89-5.02-6.33-5.02h-5.63v10.3H948.81z"/>
	<path class="st0" d="M961.9,635.43v-0.31c0-7.83,5.48-14.01,13.58-14.01c8.1,0,13.47,6.17,13.47,13.93v0.31	c0,7.79-5.36,14.05-13.39,14.05C967.41,649.4,961.9,643.15,961.9,635.43z M985.47,635.31V635c0-6.17-3.63-11.19-9.99-11.19	c-6.41,0-10.11,4.71-10.11,11.27v0.31c0,6.68,4.44,11.23,10.19,11.23C981.69,646.62,985.47,641.99,985.47,635.31z"/>
	<path class="st0" d="M994.54,621.46h15.75v2.86H997.9v24.74h-3.36V621.46z"/>
	<path class="st0" d="M1012.52,635.43v-0.31c0-7.83,5.48-14.01,13.58-14.01c8.1,0,13.47,6.17,13.47,13.93v0.31	c0,7.79-5.36,14.05-13.39,14.05C1018.04,649.4,1012.52,643.15,1012.52,635.43z M1036.1,635.31V635c0-6.17-3.63-11.19-10-11.19	c-6.41,0-10.11,4.71-10.11,11.27v0.31c0,6.68,4.44,11.23,10.19,11.23C1032.32,646.62,1036.1,641.99,1036.1,635.31z"/>
	<path class="st0" d="M1072.87,624.28h-14.12v24.77h-3.36v-27.59h20.84v27.59h-3.36V624.28z"/>
	<path class="st0" d="M1081.82,635.43v-0.31c0-7.83,5.48-14.01,13.58-14.01s13.47,6.17,13.47,13.93v0.31	c0,7.79-5.36,14.05-13.39,14.05C1087.34,649.4,1081.82,643.15,1081.82,635.43z M1105.4,635.31V635c0-6.17-3.63-11.19-9.99-11.19	c-6.41,0-10.11,4.71-10.11,11.27v0.31c0,6.68,4.44,11.23,10.19,11.23C1101.62,646.62,1105.4,641.99,1105.4,635.31z"/>
	<path class="st0" d="M1114.47,621.46h3.36v13.28l12-13.31h3.74l-12.27,13.43l12.89,14.2h-4.05l-12.31-13.47v13.47h-3.36V621.46z"/>
	<path class="st0" d="M1134.57,635.43v-0.31c0-7.83,5.48-14.01,13.58-14.01s13.47,6.17,13.47,13.93v0.31	c0,7.79-5.36,14.05-13.39,14.05C1140.09,649.4,1134.57,643.15,1134.57,635.43z M1158.15,635.31V635c0-6.17-3.63-11.19-9.99-11.19	c-6.41,0-10.11,4.71-10.11,11.27v0.31c0,6.68,4.44,11.23,10.19,11.23C1154.37,646.62,1158.15,641.99,1158.15,635.31z"/>
	<path class="st0" d="M1165.06,649.36c-1.04,0-1.5-0.31-1.5-0.31v-3.24c0,0,0.46,0.15,1.5,0.15c2.2,0,3.01-2.28,3.4-6.87	c0.58-7.64,0.66-17.64,0.66-17.64h16.59v27.59h-3.36v-24.77h-10.15c-0.08,3.55-0.27,9.8-0.62,15.09	C1171.27,644.61,1169.88,649.36,1165.06,649.36z"/>
	<path class="st0" d="M1192.65,621.46h16.09v2.74H1196v9.38h10.26v2.74H1196v9.99h13.43v2.74h-16.79V621.46z"/>
	<path class="st0" d="M1214.49,621.46h3.36v12.5h14.51v-12.5h3.36v27.59h-3.36v-12.27h-14.51v12.27h-3.36V621.46z"/>
	<path class="st0" d="M1242.65,649.05v-27.59h3.36v22.96l14.9-22.96h3.36v27.59h-3.36v-22.96l-14.9,22.96H1242.65z"/>
	<path class="st0" d="M1272.29,649.05h-3.78l9.03-12.23c-3.78-0.7-6.6-2.86-6.6-7.53v-0.15c0-5.75,4.36-7.68,9.65-7.68h7.83v27.59	h-3.36v-12h-4.05L1272.29,649.05z M1280.35,624.16c-3.74,0-6.06,1.08-6.06,4.98v0.15c0,3.55,2.12,5.09,6.06,5.09h4.71v-10.23	H1280.35z"/>
</g>
</svg>
